<?xml version="1.0" encoding="UTF-8" standalone="no"?>
<!DOCTYPE svg PUBLIC "-//W3C//DTD SVG 1.1//EN" "http://www.w3.org/Graphics/SVG/1.1/DTD/svg11.dtd">
<svg width="100%" height="100%" viewBox="0 0 600 400" version="1.1" xmlns="http://www.w3.org/2000/svg" xmlns:xlink="http://www.w3.org/1999/xlink" xml:space="preserve" xmlns:serif="http://www.serif.com/" style="fill-rule:evenodd;clip-rule:evenodd;stroke-linejoin:round;stroke-miterlimit:2;">
    <g id="Layer1">
        <rect x="-1028.23" y="-248.288" width="1712.17" height="4055.19" style="fill:#3d4345;"/>
        <rect x="-13.101" y="-13.059" width="626.202" height="426.201" style="fill:url(#_Radial1);"/>
        <g id="CorelEMF" serif:id="CorelEMF">
        </g>
        <g id="CorelEMF1" serif:id="CorelEMF">
        </g>
        <g id="CorelEMF2" serif:id="CorelEMF">
        </g>
        <g id="CorelEMF3" serif:id="CorelEMF">
        </g>
        <g id="CorelEMF4" serif:id="CorelEMF">
        </g>
        <g id="CorelEMF5" serif:id="CorelEMF">
        </g>
        <path d="M386.35,286.392C410.217,262.552 422.132,231.295 422.12,200.058C422.133,168.778 410.183,137.528 386.352,113.696C362.512,89.829 331.254,77.913 300.018,77.925C268.738,77.913 237.479,89.829 213.655,113.693C189.788,137.533 177.873,168.791 177.885,200.028C177.872,231.308 189.788,262.566 213.653,286.39C237.493,310.257 268.751,322.173 299.987,322.16C331.267,322.173 362.517,310.223 386.35,286.392ZM412.073,194.976L373.208,194.989C373.331,196.671 373.385,198.372 373.362,200.057C373.387,218.809 366.195,237.597 351.9,251.938C337.561,266.254 318.783,273.402 299.988,273.402C281.236,273.427 262.448,266.235 248.107,251.94C233.791,237.601 226.643,218.824 226.609,200.038C226.636,182.841 232.649,165.646 244.679,151.839L251.367,158.55C241.17,170.48 236.083,185.273 236.067,200.058C236.068,216.408 242.312,232.763 254.818,245.251C267.282,257.714 283.625,263.955 300.009,263.945C316.367,263.977 332.723,257.733 345.211,245.227C357.674,232.764 363.915,216.42 363.904,200.037C363.921,185.252 358.832,170.484 348.627,158.548L382.795,124.393C401.158,144.435 410.918,169.557 412.073,194.976ZM383.178,205.091L412.046,205.093C410.909,230.543 401.173,255.633 382.792,275.703L369.076,261.97C367.951,263.221 366.783,264.446 365.606,265.637C347.466,283.746 323.727,292.807 300.007,292.813C276.252,292.828 252.507,283.753 234.408,265.647C216.266,247.516 207.238,223.768 207.232,200.047C207.235,177.857 215.132,155.705 230.929,138.115L237.608,144.792C223.653,160.539 216.682,180.289 216.681,200.033C216.673,221.386 224.83,242.703 241.085,258.967C257.341,275.231 278.675,283.347 299.993,283.364C321.311,283.382 342.663,275.216 358.927,258.96C373.887,243.966 381.977,224.719 383.178,205.091ZM375.663,117.253L334.448,158.478C335.714,159.526 336.974,160.685 338.165,161.862C348.698,172.433 353.967,186.24 353.976,200.033C353.961,213.868 348.721,227.681 338.149,238.214C327.612,248.738 313.805,254.007 300.013,254.017C286.177,254.001 272.364,248.761 261.84,238.224C251.307,227.652 246.038,213.846 246.029,200.053C246.028,187.791 250.166,175.587 258.438,165.597L265.136,172.342C258.687,180.421 255.475,190.223 255.477,200.039C255.464,211.429 259.828,222.814 268.508,231.51C277.223,240.197 288.609,244.554 299.999,244.568C311.389,244.582 322.774,240.217 331.47,231.537C340.157,222.823 344.514,211.436 344.528,200.046C344.541,188.656 340.168,177.237 331.488,168.541C324.069,161.15 314.72,156.903 305.047,155.809L305.053,87.999C330.493,89.102 355.593,98.872 375.663,117.253ZM294.936,87.973L294.964,165.846C296.61,165.588 298.326,165.456 300.011,165.479C308.844,165.485 317.7,168.842 324.441,175.612C331.207,182.339 334.562,191.184 334.566,200.051C334.561,208.885 331.204,217.74 324.433,224.481C317.706,231.247 308.861,234.602 299.994,234.606C291.161,234.601 282.305,231.244 275.564,224.474C268.798,217.747 265.443,208.902 265.439,200.034C265.428,192.775 267.683,185.528 272.249,179.414L279.034,186.209C276.248,190.386 274.875,195.207 274.897,200.055C274.868,206.485 277.319,212.909 282.241,217.794C287.138,222.723 293.559,225.163 299.98,225.158C306.445,225.177 312.869,222.726 317.754,217.804C322.682,212.907 325.123,206.487 325.108,200.031C325.137,193.6 322.686,187.177 317.764,182.291C312.867,177.363 306.446,174.923 299.991,174.937C295.167,174.916 290.36,176.313 286.173,179.077L224.343,117.216C244.395,98.887 269.516,89.127 294.936,87.973ZM217.213,124.382L223.892,131.059C206.136,150.598 197.282,175.305 197.271,200.052C197.268,226.33 207.304,252.618 227.352,272.683C247.434,292.739 273.701,302.781 300.012,302.775C324.716,302.761 349.459,293.905 368.973,276.158L375.652,282.835C354.297,302.426 327.141,312.22 299.991,312.232C271.303,312.219 242.601,301.261 220.675,279.363C198.784,257.455 187.843,228.746 187.813,200.032C187.844,172.907 197.614,145.764 217.213,124.382ZM315.18,200.027C315.169,203.935 313.686,207.799 310.727,210.782C307.758,213.731 303.883,215.207 300.018,215.221C296.11,215.209 292.246,213.727 289.263,210.767C286.315,207.798 284.838,203.923 284.825,200.059C284.836,196.151 286.319,192.286 289.278,189.303C292.247,186.355 296.122,184.879 299.987,184.865C303.895,184.876 307.759,186.359 310.742,189.319C313.691,192.288 315.167,196.162 315.18,200.027Z" style="fill-rule:nonzero;"/>
    </g>
    <defs>
        <radialGradient id="_Radial1" cx="0" cy="0" r="1" gradientUnits="userSpaceOnUse" gradientTransform="matrix(2.19595e-14,-366.128,358.626,2.24189e-14,300,200.041)"><stop offset="0" style="stop-color:#fff;stop-opacity:1"/><stop offset="1" style="stop-color:#eee;stop-opacity:1"/></radialGradient>
    </defs>
</svg>
